<svg width="62" height="14" viewBox="0 0 62 14" fill="none" xmlns="http://www.w3.org/2000/svg">
<path fill-rule="evenodd" clip-rule="evenodd" d="M2.988 5.352V12.672H0V0.384H2.988V2.172C3.42 1.468 3.96 0.93 4.608 0.558C5.256 0.186 5.968 0 6.744 0C7.152 0 7.57 0.054 7.998 0.162C8.426 0.27 8.792 0.412 9.096 0.588L7.86 3.12C7.596 2.96 7.29 2.832 6.942 2.736C6.594 2.64 6.272 2.592 5.976 2.592C5.464 2.592 4.98 2.724 4.524 2.988C4.068 3.252 3.698 3.592 3.414 4.008C3.13 4.424 2.988 4.872 2.988 5.352ZM20.054 12.228C18.986 12.78 17.788 13.056 16.46 13.056C15.132 13.056 13.934 12.78 12.866 12.228C11.798 11.676 10.952 10.908 10.328 9.924C9.704 8.94 9.392 7.808 9.392 6.528C9.392 5.24 9.704 4.106 10.328 3.126C10.952 2.146 11.796 1.38 12.86 0.828C13.924 0.276 15.124 0 16.46 0C17.788 0 18.986 0.276 20.054 0.828C21.122 1.38 21.966 2.146 22.586 3.126C23.206 4.106 23.516 5.24 23.516 6.528C23.516 7.808 23.206 8.94 22.586 9.924C21.966 10.908 21.122 11.676 20.054 12.228ZM16.46 10.488C15.716 10.488 15.044 10.318 14.444 9.978C13.844 9.638 13.372 9.17 13.028 8.574C12.684 7.978 12.512 7.296 12.512 6.528C12.512 5.752 12.684 5.066 13.028 4.47C13.372 3.874 13.844 3.408 14.444 3.072C15.044 2.736 15.716 2.568 16.46 2.568C17.212 2.568 17.886 2.736 18.482 3.072C19.078 3.408 19.548 3.874 19.892 4.47C20.236 5.066 20.408 5.752 20.408 6.528C20.408 7.296 20.236 7.978 19.892 8.574C19.548 9.17 19.078 9.638 18.482 9.978C17.886 10.318 17.212 10.488 16.46 10.488ZM35.758 12.228C34.69 12.78 33.492 13.056 32.164 13.056C30.836 13.056 29.638 12.78 28.57 12.228C27.502 11.676 26.656 10.908 26.032 9.924C25.408 8.94 25.096 7.808 25.096 6.528C25.096 5.24 25.408 4.106 26.032 3.126C26.656 2.146 27.5 1.38 28.564 0.828C29.628 0.276 30.828 0 32.164 0C33.492 0 34.69 0.276 35.758 0.828C36.826 1.38 37.67 2.146 38.29 3.126C38.91 4.106 39.22 5.24 39.22 6.528C39.22 7.808 38.91 8.94 38.29 9.924C37.67 10.908 36.826 11.676 35.758 12.228ZM32.164 10.488C31.42 10.488 30.748 10.318 30.148 9.978C29.548 9.638 29.076 9.17 28.732 8.574C28.388 7.978 28.216 7.296 28.216 6.528C28.216 5.752 28.388 5.066 28.732 4.47C29.076 3.874 29.548 3.408 30.148 3.072C30.748 2.736 31.42 2.568 32.164 2.568C32.916 2.568 33.59 2.736 34.186 3.072C34.782 3.408 35.252 3.874 35.596 4.47C35.94 5.066 36.112 5.752 36.112 6.528C36.112 7.296 35.94 7.978 35.596 8.574C35.252 9.17 34.782 9.638 34.186 9.978C33.59 10.318 32.916 10.488 32.164 10.488ZM44.772 4.896V12.672H41.784V0.384H44.772V1.86C45.34 1.228 45.938 0.76 46.566 0.456C47.194 0.152 47.884 0 48.636 0C49.604 0 50.466 0.22 51.222 0.66C51.978 1.1 52.512 1.692 52.824 2.436C53.376 1.652 54.004 1.05 54.708 0.63C55.412 0.21 56.228 0 57.156 0C58.036 0 58.818 0.182 59.502 0.546C60.186 0.91 60.726 1.43 61.122 2.106C61.518 2.782 61.716 3.596 61.716 4.548V12.672H58.728V5.364C58.728 4.452 58.49 3.73 58.014 3.198C57.538 2.666 56.9 2.4 56.1 2.4C55.556 2.4 55.068 2.516 54.636 2.748C54.204 2.98 53.864 3.288 53.616 3.672C53.368 4.056 53.244 4.468 53.244 4.908V12.672H50.256V5.244C50.256 4.38 50.024 3.69 49.56 3.174C49.096 2.658 48.464 2.4 47.664 2.4C47.112 2.4 46.618 2.516 46.182 2.748C45.746 2.98 45.402 3.286 45.15 3.666C44.898 4.046 44.772 4.456 44.772 4.896Z" fill="white"/>
</svg>
